<?xml version="1.0" encoding="iso-8859-1"?>
<!-- Generator: Adobe Illustrator 22.0.1, SVG Export Plug-In . SVG Version: 6.00 Build 0)  -->
<svg version="1.1" id="Icons" xmlns="http://www.w3.org/2000/svg" xmlns:xlink="http://www.w3.org/1999/xlink" x="0px" y="0px"
	 viewBox="0 0 512 512" style="enable-background:new 0 0 512 512;" xml:space="preserve">
<g>
	<path id="XMLID_1735_" style="fill:#29A4FC;" d="M512,255.904c0,70.692-28.654,134.692-74.981,181.019S326.692,511.904,256,511.904
		S121.308,483.25,74.981,436.924S0,326.597,0,255.904S28.654,121.212,74.981,74.885S185.308-0.096,256-0.096
		s134.692,28.654,181.019,74.981S512,185.212,512,255.904z"/>
	<g id="XMLID_1775_">
		<g id="XMLID_1814_">
			<path id="XMLID_1819_" style="fill:#FFFFFF;" d="M116.925,143.878c0,38.141,15.46,72.671,40.454,97.665
				s59.525,40.454,97.665,40.454s72.671-15.46,97.665-40.454c24.995-24.995,40.454-59.525,40.454-97.665
				s-15.46-72.671-40.454-97.665c-24.995-24.995-59.525-40.454-97.665-40.454s-72.671,15.46-97.665,40.454
				S116.925,105.737,116.925,143.878z"/>
			<path id="XMLID_1815_" style="fill:#FB4755;" d="M255.04,40.624c-28.51,0-54.323,11.557-73.008,30.242
				s-30.242,44.497-30.242,73.007c0,10.5,1.568,20.635,4.483,30.184s7.178,18.511,12.568,26.666c0.605,0.92,1.225,1.83,1.86,2.729
				s1.285,1.786,1.95,2.661c1.12,1.485,2.283,2.94,3.484,4.363s2.441,2.813,3.716,4.168c2.7,2.865,5.56,5.575,8.566,8.116
				s6.159,4.914,9.444,7.104c8.095,5.395,16.995,9.677,26.481,12.627s19.559,4.567,29.999,4.633c0.115,0.005,0.232,0.008,0.35,0.009
				s0.235,0.001,0.35,0.001c3.43,0,6.822-0.167,10.167-0.495s6.643-0.815,9.883-1.455c2.5-0.49,4.965-1.07,7.392-1.739
				s4.817-1.426,7.167-2.271c1.985-0.695,3.943-1.455,5.869-2.275s3.821-1.7,5.681-2.635c3.365-1.68,6.625-3.54,9.766-5.567
				s6.164-4.223,9.054-6.572c3.88-3.14,7.525-6.557,10.906-10.221s6.499-7.574,9.324-11.699c0.055-0.07,0.105-0.14,0.154-0.21
				s0.096-0.14,0.146-0.21c0.13-0.195,0.263-0.392,0.394-0.591s0.261-0.399,0.386-0.599c0.38-0.57,0.753-1.145,1.117-1.724
				s0.722-1.161,1.072-1.746c0.44-0.725,0.87-1.455,1.29-2.191s0.83-1.479,1.23-2.229c1.38-2.56,2.652-5.185,3.812-7.869
				s2.207-5.426,3.138-8.221l0.005-0.005l0.005-0.005c1.72-5.145,3.045-10.468,3.94-15.934s1.36-11.076,1.36-16.796
				c0-28.51-11.557-54.323-30.244-73.007S283.555,40.624,255.04,40.624z M255.04,70.044c6.7,0,13.19,0.892,19.36,2.565
				s12.02,4.125,17.44,7.245l-50.415,50.41l-50.415,50.41c-3.115-5.42-5.565-11.27-7.236-17.44s-2.564-12.66-2.564-19.36
				c0-20.39,8.265-38.847,21.626-52.207S234.655,70.044,255.04,70.044z M310.42,192.704c-1.455,1.655-2.982,3.242-4.579,4.757
				s-3.261,2.957-4.991,4.322c-0.375,0.295-0.753,0.588-1.133,0.876s-0.763,0.574-1.148,0.854c-4.52,3.31-9.433,6.115-14.654,8.336
				s-10.751,3.859-16.506,4.834c-2.01,0.34-4.047,0.597-6.11,0.77s-4.15,0.26-6.26,0.26c-6.695,0-13.185-0.893-19.355-2.565
				s-12.02-4.125-17.435-7.245l3.46-3.46l3.46-3.46l46.95-46.95l46.95-46.95c3.12,5.415,5.572,11.263,7.245,17.431
				c1.672,6.169,2.565,12.659,2.565,19.359c0,5.875-0.685,11.592-1.982,17.074s-3.207,10.726-5.658,15.656
				c-1.445,2.925-3.08,5.74-4.889,8.429S312.56,190.284,310.42,192.704z"/>
		</g>
		<g id="XMLID_1776_">
			<path id="XMLID_1870_" style="fill:#1F3D5C;" d="M493.13,352.544c-5.25,12.865-11.515,25.207-18.696,36.926
				s-15.279,22.814-24.194,33.184l-0.34,4.215l-0.34,4.215c-0.245,3.02-1.628,5.695-3.708,7.615s-4.858,3.085-7.893,3.085h-2.97
				h-2.97c-22.94,21.73-49.9,39.26-79.647,51.358S290.09,511.904,256,511.904s-66.625-6.665-96.373-18.763
				s-56.708-29.628-79.647-51.358h-2.55h-2.55c-8.995,0-17.137-3.647-23.031-9.544s-9.539-14.041-9.539-23.036v-6.14v-6.14
				c-4.595-6.95-8.86-14.137-12.774-21.541s-7.476-15.024-10.666-22.839H256H493.13z"/>
			<g id="XMLID_1788_">
				<path id="XMLID_1812_" style="fill:#E09461;" d="M301.189,283.297v6.545v6.545c0,6.133-2.486,11.686-6.506,15.706
					c-4.02,4.019-9.575,6.505-15.713,6.505H171.748H64.525c-6.138,0-11.693-2.486-15.713-6.505
					c-4.02-4.019-6.506-9.572-6.506-15.706v-6.545v-6.545c0-22.802,9.243-43.447,24.187-58.39
					c14.944-14.944,35.588-24.187,58.39-24.187h46.865h46.865c22.802,0,43.447,9.243,58.39,24.187
					C291.946,239.85,301.189,260.494,301.189,283.297z"/>
				<path id="XMLID_1847_" style="fill:#E09461;" d="M301.19,395.064v7.07v7.07c0,8.995-3.645,17.14-9.54,23.036
					s-14.04,9.544-23.04,9.544h-96.865H74.88c-8.995,0-17.137-3.647-23.031-9.544s-9.539-14.041-9.539-23.036v-7.07v-7.07
					c0-3.91,1.583-7.448,4.141-10.007s6.094-4.142,9.999-4.142h115.3h115.3c3.9,0,7.435,1.582,9.995,4.142
					S301.19,391.154,301.19,395.064z"/>
				<path id="XMLID_1810_" style="fill:#FAA268;" d="M301.189,283.297v6.545v6.545c0,6.133-2.486,11.686-6.506,15.706
					c-4.02,4.019-9.575,6.505-15.713,6.505h-68.647h-68.647c-6.138,0-11.693-2.486-15.713-6.505
					c-4.02-4.019-6.506-9.572-6.506-15.706v-6.545v-6.545c0-22.802,9.243-43.447,24.187-58.39
					c14.944-14.944,35.588-24.187,58.39-24.187h8.289h8.289c22.802,0,43.447,9.243,58.39,24.187
					C291.946,239.85,301.189,260.494,301.189,283.297z"/>
				<path id="XMLID_1809_" style="fill:#FAA268;" d="M301.189,395.062v7.072v7.072c0,8.992-3.645,17.136-9.54,23.032
					s-14.038,9.543-23.035,9.543h-58.292h-58.292c-8.997,0-17.14-3.648-23.035-9.543c-5.895-5.896-9.54-14.039-9.54-23.032v-7.072
					v-7.072c0-3.909,1.584-7.445,4.144-10.004c2.56-2.559,6.096-4.14,10.001-4.14h76.722h76.722c3.905,0,7.441,1.582,10.001,4.14
					C299.606,387.617,301.189,391.153,301.189,395.062z"/>
				<path id="XMLID_1808_" style="fill:#FADAC6;" d="M133.704,263.532c1.584-2.31,2.082-5.044,1.606-7.596
					c-0.476-2.552-1.926-4.922-4.236-6.506c-2.31-1.584-5.044-2.082-7.596-1.606c-2.552,0.476-4.922,1.926-6.506,4.236
					c-1.584,2.31-2.869,6.193-3.181,9.894c-0.312,3.701,0.35,7.22,2.66,8.804c2.31,1.584,5.832,0.933,9.171-0.692
					C128.962,268.441,132.12,265.842,133.704,263.532z"/>
				<path id="XMLID_1807_" style="fill:#FADAC6;" d="M57.25,291.222c-1.588,2.307-2.091,5.04-1.62,7.593
					c0.471,2.553,1.916,4.926,4.224,6.514c2.307,1.588,5.04,2.091,7.593,1.62c2.553-0.471,4.926-1.916,6.514-4.224
					c1.588-2.307,2.881-6.188,3.199-9.888c0.319-3.7-0.337-7.221-2.644-8.809c-2.307-1.588-5.83-0.943-9.173,0.675
					C62.001,286.322,58.838,288.914,57.25,291.222z"/>
				<path id="XMLID_1806_" style="fill:#FADAC6;" d="M87.448,214.743c-2.447,1.364-4.109,3.59-4.819,6.087
					c-0.71,2.497-0.467,5.265,0.896,7.712c1.364,2.447,3.59,4.109,6.087,4.819c2.497,0.71,5.265,0.467,7.712-0.896
					s5.326-4.268,7.253-7.443c1.927-3.175,2.901-6.621,1.537-9.068c-1.364-2.447-4.807-3.431-8.521-3.463
					S89.894,213.379,87.448,214.743z"/>
				<path id="XMLID_1805_" style="fill:#FADAC6;" d="M179.438,228.209c0.919,2.646,2.824,4.669,5.161,5.8
					c2.337,1.131,5.105,1.371,7.751,0.452s4.669-2.824,5.8-5.161c1.131-2.337,1.371-5.105,0.452-7.751s-3.282-5.985-6.075-8.432
					s-6.019-4.003-8.665-3.084s-4.211,4.14-4.886,7.793C178.302,221.479,178.519,225.563,179.438,228.209z"/>
				<path id="XMLID_1804_" style="fill:#FADAC6;" d="M170.136,286.495c1.529,2.347,3.864,3.852,6.404,4.389s5.285,0.104,7.632-1.425
					c2.347-1.529,3.852-3.864,4.389-6.404c0.536-2.54,0.104-5.285-1.425-7.632c-1.529-2.347-4.625-5.02-7.925-6.723
					c-3.3-1.703-6.805-2.438-9.152-0.909s-3.092,5.032-2.868,8.739S168.607,284.148,170.136,286.495z"/>
				<path id="XMLID_1803_" style="fill:#FADAC6;" d="M257.822,252.253c1.994,1.967,4.597,2.94,7.193,2.922s5.185-1.026,7.152-3.02
					c1.967-1.994,2.94-4.597,2.922-7.193c-0.018-2.596-1.026-5.185-3.02-7.152c-1.994-1.967-5.589-3.918-9.176-4.879
					c-3.588-0.961-7.169-0.931-9.136,1.063c-1.967,1.994-1.948,5.575-0.939,9.149S255.827,250.286,257.822,252.253z"/>
				<path id="XMLID_1802_" style="fill:#FADAC6;" d="M232.076,293.563c1.212,2.526,3.332,4.321,5.781,5.182
					c2.449,0.861,5.227,0.788,7.752-0.424c2.526-1.212,4.321-3.332,5.182-5.781c0.861-2.449,0.788-5.227-0.424-7.752
					s-3.935-5.577-6.987-7.694c-3.052-2.117-6.432-3.299-8.957-2.088c-2.526,1.212-3.718,4.588-3.977,8.293
					C230.189,287.004,230.865,291.038,232.076,293.563z"/>
				<path id="XMLID_1801_" style="fill:#9E490D;" d="M301.189,355.913v3.502v3.502c0,4.972-2.014,9.472-5.272,12.73
					s-7.758,5.272-12.73,5.272H169.605H56.022c-4.972,0-9.472-2.014-12.73-5.272c-3.257-3.257-5.272-7.758-5.272-12.73v-3.502
					v-3.502c0-4.972,2.014-9.472,5.272-12.73c3.257-3.257,7.758-5.272,12.73-5.272h113.583h113.583c4.972,0,9.472,2.014,12.73,5.272
					C299.175,346.44,301.189,350.941,301.189,355.913z"/>
				<path id="XMLID_1800_" style="fill:#B5550D;" d="M301.189,355.913v3.502v3.502c0,4.972-2.014,9.472-5.272,12.73
					s-7.758,5.272-12.73,5.272h-72.865h-72.865c-4.972,0-9.472-2.014-12.73-5.272c-3.257-3.257-5.272-7.758-5.272-12.73v-3.502
					v-3.502c0-4.972,2.014-9.472,5.272-12.73c3.257-3.257,7.758-5.272,12.73-5.272h72.865h72.865c4.972,0,9.472,2.014,12.73,5.272
					C299.175,346.44,301.189,350.941,301.189,355.913z"/>
				<path id="XMLID_1799_" style="fill:#9E490D;" d="M255.044,365.558c0,2.367,0.96,4.51,2.511,6.062
					c1.551,1.551,3.694,2.511,6.062,2.511c2.367,0,4.51-0.96,6.062-2.511c1.551-1.551,2.511-3.694,2.511-6.062
					c0-2.367-0.959-4.51-2.511-6.062c-1.551-1.551-3.694-2.511-6.062-2.511c-2.367,0-4.51,0.959-6.062,2.511
					C256.004,361.048,255.044,363.191,255.044,365.558z"/>
				<path id="XMLID_1798_" style="fill:#BD2133;" d="M295.043,328.25c0,1.333-0.27,2.604-0.759,3.76s-1.196,2.198-2.07,3.072
					c-0.87,0.874-1.91,1.582-3.065,2.07c-1.155,0.489-2.426,0.759-3.759,0.759H169.605H53.819c-2.666,0-5.079-1.08-6.826-2.828
					c-1.747-1.748-2.827-4.163-2.827-6.833c0-1.333,0.27-2.604,0.759-3.759s1.196-2.195,2.07-3.065
					c0.87-0.874,1.91-1.582,3.065-2.07c1.155-0.489,2.426-0.759,3.759-0.759h115.786h115.786c2.666,0,5.079,1.08,6.826,2.827
					S295.043,325.584,295.043,328.25z"/>
				<path id="XMLID_1797_" style="fill:#EB2433;" d="M295.043,328.25c0,1.333-0.27,2.604-0.759,3.76s-1.196,2.198-2.07,3.072
					c-0.87,0.874-1.91,1.582-3.065,2.07c-1.155,0.489-2.426,0.759-3.759,0.759h-78.136h-78.136c-2.67,0-5.086-1.08-6.833-2.828
					c-1.748-1.748-2.828-4.163-2.828-6.833c0-1.333,0.27-2.604,0.759-3.759c0.489-1.155,1.196-2.195,2.07-3.065
					c0.874-0.874,1.916-1.582,3.072-2.07c1.156-0.489,2.427-0.759,3.76-0.759h78.136h78.136c2.666,0,5.079,1.08,6.826,2.827
					S295.043,325.584,295.043,328.25z"/>
				<path id="XMLID_1796_" style="fill:#E0B645;" d="M223.573,318.072l-38.204,38.204l-38.204,38.204
					c-1.734,1.734-4.006,2.6-6.278,2.6s-4.544-0.867-6.278-2.6l-38.204-38.204l-38.204-38.204h82.685H223.573z"/>
				<path id="XMLID_1795_" style="fill:#FDD347;" d="M282.722,318.072l-38.204,38.204l-38.204,38.204
					c-1.734,1.734-4.006,2.6-6.278,2.6c-2.272,0-4.544-0.867-6.278-2.6l-38.204-38.204l-38.204-38.204h82.685H282.722z"/>
				<path id="XMLID_1794_" style="fill:#E0B645;" d="M223.573,335.913c0,3.331,1.35,6.347,3.533,8.53s5.199,3.533,8.53,3.533
					c3.331,0,6.347-1.35,8.53-3.533s3.533-5.199,3.533-8.53c0-3.331-1.35-6.347-3.533-8.53c-2.183-2.183-5.199-3.533-8.53-3.533
					c-3.331,0-6.347,1.35-8.53,3.533C224.923,329.566,223.573,332.582,223.573,335.913z"/>
				<path id="XMLID_1793_" style="fill:#E0B645;" d="M195.186,369.049c0,3.331,1.35,6.347,3.533,8.53s5.199,3.533,8.53,3.533
					c3.331,0,6.347-1.35,8.53-3.533s3.533-5.199,3.533-8.53s-1.35-6.347-3.533-8.53s-5.199-3.533-8.53-3.533
					c-3.331,0-6.347,1.35-8.53,3.533S195.186,365.718,195.186,369.049z"/>
				<path id="XMLID_1792_" style="fill:#E0B645;" d="M194.005,337.911c0,1.666,0.675,3.174,1.767,4.265
					c1.092,1.092,2.599,1.767,4.265,1.767c1.666,0,3.174-0.675,4.265-1.767c1.092-1.092,1.767-2.599,1.767-4.265
					c0-1.666-0.675-3.174-1.767-4.265c-1.092-1.092-2.599-1.767-4.265-1.767c-1.666,0-3.174,0.675-4.265,1.767
					C194.68,334.737,194.005,336.245,194.005,337.911z"/>
				<path id="XMLID_1791_" style="fill:#E0B645;" d="M167.152,351.629c0,3.086,1.251,5.88,3.274,7.903
					c2.023,2.023,4.817,3.274,7.903,3.274s5.88-1.251,7.903-3.274c2.023-2.023,3.274-4.817,3.274-7.903s-1.251-5.88-3.274-7.903
					c-2.023-2.023-4.817-3.274-7.903-3.274s-5.88,1.251-7.903,3.274C168.403,345.749,167.152,348.543,167.152,351.629z"/>
				<path id="XMLID_1790_" style="fill:#0FA46E;" d="M180.894,318.075c0,3.883-0.787,7.584-2.211,10.951
					c-1.424,3.367-3.486,6.399-6.036,8.945c-2.546,2.55-5.578,4.612-8.946,6.036s-7.071,2.211-10.959,2.211
					c-5.036,0-9.764-1.324-13.854-3.643c-4.09-2.319-7.543-5.632-10.029-9.61c-0.87,0.767-1.811,1.462-2.811,2.07
					c-1,0.609-2.058,1.132-3.164,1.556c-1.106,0.429-2.259,0.759-3.449,0.982c-1.19,0.223-2.418,0.339-3.674,0.339
					c-2.7,0-5.274-0.54-7.62-1.517c-2.346-0.977-4.463-2.392-6.25-4.14c-1.787,1.749-3.905,3.163-6.25,4.14
					c-2.346,0.977-4.919,1.517-7.62,1.517h-4.989h-4.989c-5.478,0-10.439-2.22-14.031-5.81c-3.592-3.59-5.814-8.549-5.814-14.026
					h61.348H180.894z"/>
				<path id="XMLID_1789_" style="fill:#088E5D;" d="M179.651,318.075c-0.681,2.216-1.631,4.316-2.811,6.262
					s-2.59,3.738-4.193,5.336c-2.546,2.55-5.578,4.612-8.946,6.036c-3.368,1.424-7.071,2.211-10.959,2.211
					c-5.036,0-9.764-1.324-13.854-3.643c-4.09-2.319-7.543-5.632-10.029-9.61c-0.87,0.767-1.811,1.462-2.811,2.07
					c-1,0.609-2.058,1.132-3.164,1.556c-1.106,0.429-2.259,0.759-3.449,0.982c-1.19,0.223-2.418,0.339-3.674,0.339
					c-2.7,0-5.274-0.54-7.62-1.517s-4.463-2.392-6.25-4.14c-1.787,1.749-3.905,3.163-6.25,4.14s-4.919,1.517-7.62,1.517h-4.989
					h-4.989c-3.995,0-7.717-1.183-10.833-3.217c-3.116-2.034-5.626-4.918-7.194-8.322h59.817H179.651z"/>
			</g>
			<g id="XMLID_1777_">
				<g id="XMLID_1785_">
					<path id="XMLID_1787_" style="fill:#1F3D5C;" d="M457.635,17.995l-18.76,103.634l-18.76,103.634l-10.288-1.862l-10.288-1.862
						l18.76-103.634l18.76-103.634c0.298-1.648,1.145-3.037,2.271-3.948c1.127-0.912,2.534-1.347,3.956-1.09l5.141,0.931
						l5.141,0.931c1.421,0.257,2.587,1.158,3.323,2.407C457.627,14.75,457.933,16.346,457.635,17.995z"/>
					<path id="XMLID_1786_" style="fill:#245073;" d="M457.635,17.995l-18.76,103.634l-18.76,103.634l-5.146-0.932l-5.146-0.932
						l18.76-103.634l18.76-103.634c0.298-1.648,1.145-3.037,2.271-3.948c1.127-0.912,2.534-1.347,3.956-1.09v0v0
						c1.421,0.257,2.587,1.158,3.323,2.407C457.627,14.75,457.933,16.346,457.635,17.995z"/>
				</g>
				<path id="XMLID_1875_" style="fill:#B83848;" d="M468.7,192.704l-0.365,4.54l-0.365,4.54l-0.015,0.21l-0.015,0.21l-0.97,12.045
					L466,226.294l-5.065,63.125l-5.065,63.125l-2.175,27.07l-2.175,27.07l-0.64,7.985l-0.64,7.985l-0.34,4.215l-0.34,4.215
					c-0.245,3.02-1.628,5.695-3.708,7.615s-4.858,3.085-7.893,3.085H383.2h-54.76c-3.035,0-5.812-1.165-7.892-3.085
					s-3.462-4.595-3.707-7.615l-0.98-12.2l-0.98-12.2l-2.175-27.07l-2.175-27.07l-3.19-39.765l-3.19-39.765l-1.475-18.375
					l-1.475-18.375l-1.315-16.375l-1.315-16.375l-0.07-0.865l-0.07-0.865l-0.365-4.54l-0.365-4.54h85.5H468.7z"/>
				<path id="XMLID_1842_" style="fill:#D1D1D1;" d="M451.52,406.684l-0.64,7.985l-0.64,7.985l-0.34,4.215l-0.34,4.215
					c-0.245,3.02-1.628,5.695-3.708,7.615s-4.858,3.085-7.893,3.085H383.2h-54.76c-3.035,0-5.812-1.165-7.892-3.085
					s-3.462-4.595-3.707-7.615l-0.98-12.2l-0.98-12.2h68.32H451.52z"/>
				<path id="XMLID_1861_" style="fill:#FB4755;" d="M468.7,192.704l-0.365,4.54l-0.365,4.54l-0.015,0.21l-0.015,0.21l-0.97,12.045
					L466,226.294l-5.065,63.125l-5.065,63.125l-2.175,27.07l-2.175,27.07l-0.64,7.985l-0.64,7.985l-0.34,4.215l-0.34,4.215
					c-0.245,3.02-1.628,5.695-3.708,7.615s-4.858,3.085-7.893,3.085H404.7h-33.26c-3.035,0-5.812-1.165-7.892-3.085
					s-3.462-4.595-3.707-7.615l-0.98-12.2l-0.98-12.2l-2.175-27.07l-2.175-27.07l-4.175-52.01l-4.175-52.01l-0.89-11.115
					l-0.89-11.115l-0.97-12.045l-0.97-12.045l-0.015-0.21l-0.015-0.21l-0.05-0.595l-0.05-0.595l-0.315-3.945l-0.315-3.945h64H468.7z
					"/>
				<path id="XMLID_1840_" style="fill:#FFFFFF;" d="M451.52,406.684l-0.64,7.985l-0.64,7.985l-0.34,4.215l-0.34,4.215
					c-0.245,3.02-1.628,5.695-3.708,7.615s-4.858,3.085-7.893,3.085H404.7h-33.26c-3.035,0-5.812-1.165-7.892-3.085
					s-3.462-4.595-3.707-7.615l-0.98-12.2l-0.98-12.2h46.82H451.52z"/>
				<path id="XMLID_1780_" style="fill:#CACACA;" d="M483.34,189.191c0,1.735-0.353,3.39-0.989,4.896
					c-0.636,1.506-1.556,2.864-2.691,4.004c-1.14,1.14-2.498,2.062-4.005,2.7c-1.508,0.637-3.165,0.99-4.905,0.99h-87.555H295.64
					c-3.48,0-6.628-1.41-8.905-3.689c-2.277-2.279-3.685-5.426-3.685-8.901c0-1.74,0.352-3.397,0.99-4.905
					c0.637-1.508,1.56-2.865,2.7-4.005c1.135-1.135,2.49-2.055,3.996-2.691s3.164-0.989,4.904-0.989h87.555h87.555
					c3.48,0,6.628,1.408,8.905,3.685C481.932,182.564,483.34,185.711,483.34,189.191z"/>
				<path id="XMLID_1779_" style="fill:#FFFFFF;" d="M483.34,189.191c0,1.735-0.353,3.39-0.989,4.896
					c-0.636,1.506-1.556,2.864-2.691,4.004c-1.14,1.14-2.498,2.062-4.005,2.7c-1.508,0.637-3.165,0.99-4.905,0.99h-58.73h-58.73
					c-3.475,0-6.623-1.41-8.901-3.689c-2.279-2.279-3.689-5.426-3.689-8.901c0-1.74,0.353-3.397,0.99-4.905
					c0.637-1.508,1.56-2.865,2.7-4.005c1.14-1.135,2.497-2.055,4.004-2.691s3.161-0.989,4.896-0.989h58.73h58.73
					c3.48,0,6.628,1.408,8.905,3.685C481.932,182.564,483.34,185.711,483.34,189.191z"/>
				<polygon id="XMLID_1778_" style="fill:#B83848;" points="467.94,202.201 466.97,214.246 466,226.291 393.01,226.291 
					320.02,226.291 320.02,214.246 320.02,202.201 393.98,202.201 				"/>
			</g>
		</g>
	</g>
</g>
</svg>
